# xmcd
#
# Track frame offsets:
#	182
#	19682
#	38512
#
# Disc length: 950 seconds
# Revision: 0
# Processed by: cddbd v1.5.2PL0 Copyright (c) Steve Scherf et al.
# Submitted via: dBpowerAMP V12.0
#
DISCID=1503b403
DTITLE=Milli Vanilli - Blame It On The Rain
DYEAR=1989
DGENRE=Pop
TTITLE0=Blame It On The Rain [Album Version]
TTITLE1=Blame It On The Rain [Single Remix]
TTITLE2=Blame It On The Rain [Extended Version]
EXTD=
EXTT0=
EXTT1=
EXTT2=
PLAYORDER=
